<svg width="100%" height="100%" viewBox="0 0 33 22" fill="none">
  <path fill-rule="evenodd" clip-rule="evenodd" d="M2.51602 2.93928C2.53603 2.91998 2.6143 2.86045 2.83785 2.81119C3.15343 2.74164 3.63254 2.72455 4.29228 2.80041C5.60419 2.95127 7.39832 3.44074 9.5201 4.25216L10.2345 2.3841C8.04002 1.54489 6.06915 0.991551 4.52075 0.813502C3.75033 0.724911 3.02545 0.721845 2.4074 0.858056C1.79156 0.993782 1.15248 1.30052 0.784327 1.93654C0.490985 2.44364 0.464953 3.00168 0.563344 3.50625C0.660044 4.00216 0.88508 4.5013 1.17435 4.98347C1.7532 5.94828 2.69914 7.0244 3.89074 8.14282C6.28589 10.3909 9.84286 12.9663 13.993 15.3577C18.1432 17.7492 22.1564 19.5356 25.3046 20.4815C26.8709 20.952 28.2774 21.2313 29.4036 21.249C29.9665 21.2579 30.5115 21.2027 30.9894 21.0385C31.4755 20.8715 31.9459 20.5707 32.2391 20.0639C32.612 19.4188 32.5528 18.7018 32.3559 18.0944C32.158 17.4842 31.7824 16.8501 31.3076 16.2188C30.3532 14.9499 28.85 13.4993 26.98 11.9988L25.7283 13.5587C27.5377 15.0107 28.8973 16.3414 29.7093 17.421C30.1177 17.964 30.3512 18.3961 30.4534 18.7112C30.526 18.9353 30.5135 19.0351 30.5066 19.0625C30.4921 19.0763 30.4478 19.1098 30.3395 19.147C30.1585 19.2092 29.866 19.256 29.4351 19.2493C28.5739 19.2357 27.3687 19.0133 25.8801 18.566C22.9185 17.6763 19.0489 15.9627 14.9916 13.6248C10.9342 11.2869 7.51244 8.79914 5.25947 6.68453C4.127 5.62162 3.33154 4.69153 2.88937 3.95453C2.66814 3.58578 2.56277 3.31012 2.52637 3.12347C2.50485 3.0131 2.51141 2.95868 2.51602 2.93928Z" fill="#FCEFED" fill-opacity="0.97"/>
  <path fill-rule="evenodd" clip-rule="evenodd" d="M16.5117 2C11.5411 2 7.51168 6.02944 7.51168 11C7.51168 15.9706 11.5411 20 16.5117 20C21.4822 20 25.5117 15.9706 25.5117 11C25.5117 6.02944 21.4822 2 16.5117 2ZM5.51168 11C5.51168 4.92487 10.4365 0 16.5117 0C22.5868 0 27.5117 4.92487 27.5117 11C27.5117 17.0751 22.5868 22 16.5117 22C10.4365 22 5.51168 17.0751 5.51168 11Z" fill="#FCEFED" fill-opacity="0.97"/>
</svg>
