<svg width="100%" height="100%" viewBox="0 0 218 19">
<path d="M0.950012 17.9999V0.137939H11.324C12.6413 0.137939 13.742 0.389273 14.626 0.891939C15.51 1.37727 16.1687 2.05327 16.602 2.91994C17.0527 3.76927 17.278 4.72261 17.278 5.77994C17.278 6.92394 17.0093 7.94661 16.472 8.84794C15.952 9.73194 15.2153 10.4253 14.262 10.9279L17.85 17.9999H12.65L9.68601 11.7079H5.60401V17.9999H0.950012ZM5.60401 8.24994H10.414C11.0553 8.24994 11.5667 8.04194 11.948 7.62594C12.3467 7.19261 12.546 6.62061 12.546 5.90994C12.546 5.44194 12.4593 5.04327 12.286 4.71394C12.1127 4.38461 11.87 4.13327 11.558 3.95994C11.246 3.76927 10.8647 3.67394 10.414 3.67394H5.60401V8.24994Z" />
<path d="M48.6921 18.3119C46.9761 18.3119 45.4941 18.0433 44.2461 17.5059C43.0154 16.9686 42.0708 16.1626 41.4121 15.0879C40.7534 14.0133 40.4241 12.6786 40.4241 11.0839V0.137939H45.1041V10.9799C45.1041 12.1239 45.4074 13.0253 46.0141 13.6839C46.6208 14.3426 47.5134 14.6719 48.6921 14.6719C49.8708 14.6719 50.7721 14.3426 51.3961 13.6839C52.0201 13.0253 52.3321 12.1239 52.3321 10.9799V0.137939H56.9861V11.0839C56.9861 12.6786 56.6568 14.0133 55.9981 15.0879C55.3394 16.1626 54.3948 16.9686 53.1641 17.5059C51.9334 18.0433 50.4428 18.3119 48.6921 18.3119Z"/>
<path d="M81.1194 17.9999V0.137939H85.2534L91.7534 8.43194C91.8747 8.57061 92.0307 8.76994 92.2214 9.02994C92.4294 9.28994 92.6287 9.55861 92.8194 9.83594C93.0101 10.0959 93.1487 10.3039 93.2354 10.4599L93.3654 10.4339C93.3654 10.0526 93.3654 9.68861 93.3654 9.34194C93.3654 8.97794 93.3654 8.67461 93.3654 8.43194V0.137939H97.6814V17.9999H93.5734L86.6834 9.26394C86.4581 8.98661 86.2414 8.70061 86.0334 8.40594C85.8427 8.11127 85.6867 7.86861 85.5654 7.67794L85.4354 7.70394C85.4354 7.98127 85.4354 8.26727 85.4354 8.56194C85.4354 8.83927 85.4354 9.07327 85.4354 9.26394V17.9999H81.1194Z" />
<path d="M121.864 17.9999V0.137939H125.998L132.498 8.43194C132.62 8.57061 132.776 8.76994 132.966 9.02994C133.174 9.28994 133.374 9.55861 133.564 9.83594C133.755 10.0959 133.894 10.3039 133.98 10.4599L134.11 10.4339C134.11 10.0526 134.11 9.68861 134.11 9.34194C134.11 8.97794 134.11 8.67461 134.11 8.43194V0.137939H138.426V17.9999H134.318L127.428 9.26394C127.203 8.98661 126.986 8.70061 126.778 8.40594C126.588 8.11127 126.432 7.86861 126.31 7.67794L126.18 7.70394C126.18 7.98127 126.18 8.26727 126.18 8.56194C126.18 8.83927 126.18 9.07327 126.18 9.26394V17.9999H121.864Z" />
<path d="M162.661 17.9999V0.137939H177.403V3.77794H167.315V7.13194H176.129V10.6939H167.315V14.3599H177.585V17.9999H162.661Z"/>
<path d="M201.069 17.9999V0.137939H211.443C212.76 0.137939 213.861 0.389273 214.745 0.891939C215.629 1.37727 216.287 2.05327 216.721 2.91994C217.171 3.76927 217.397 4.72261 217.397 5.77994C217.397 6.92394 217.128 7.94661 216.591 8.84794C216.071 9.73194 215.334 10.4253 214.381 10.9279L217.969 17.9999H212.769L209.805 11.7079H205.723V17.9999H201.069ZM205.723 8.24994H210.533C211.174 8.24994 211.685 8.04194 212.067 7.62594C212.465 7.19261 212.665 6.62061 212.665 5.90994C212.665 5.44194 212.578 5.04327 212.405 4.71394C212.231 4.38461 211.989 4.13327 211.677 3.95994C211.365 3.76927 210.983 3.67394 210.533 3.67394H205.723V8.24994Z" />
</svg>
