<svg width="100%" height="100%" viewBox="0 0 218 37">
<path d="M0.950012 17.9999V0.137939H11.324C12.6413 0.137939 13.742 0.389273 14.626 0.891939C15.51 1.37727 16.1687 2.05327 16.602 2.91994C17.0527 3.76927 17.278 4.72261 17.278 5.77994C17.278 6.92394 17.0093 7.94661 16.472 8.84794C15.952 9.73194 15.2153 10.4253 14.262 10.9279L17.85 17.9999H12.65L9.68601 11.7079H5.60401V17.9999H0.950012ZM5.60401 8.24994H10.414C11.0553 8.24994 11.5667 8.04194 11.948 7.62594C12.3467 7.19261 12.546 6.62061 12.546 5.90994C12.546 5.44194 12.4593 5.04327 12.286 4.71394C12.1127 4.38461 11.87 4.13327 11.558 3.95994C11.246 3.76927 10.8647 3.67394 10.414 3.67394H5.60401V8.24994Z" fill="#FCEFED"/>
<path d="M48.6921 18.3119C46.9761 18.3119 45.4941 18.0433 44.2461 17.5059C43.0154 16.9686 42.0708 16.1626 41.4121 15.0879C40.7534 14.0133 40.4241 12.6786 40.4241 11.0839V0.137939H45.1041V10.9799C45.1041 12.1239 45.4074 13.0253 46.0141 13.6839C46.6208 14.3426 47.5134 14.6719 48.6921 14.6719C49.8708 14.6719 50.7721 14.3426 51.3961 13.6839C52.0201 13.0253 52.3321 12.1239 52.3321 10.9799V0.137939H56.9861V11.0839C56.9861 12.6786 56.6568 14.0133 55.9981 15.0879C55.3394 16.1626 54.3948 16.9686 53.1641 17.5059C51.9334 18.0433 50.4428 18.3119 48.6921 18.3119Z" fill="#FCEFED"/>
<path d="M81.1194 17.9999V0.137939H85.2534L91.7534 8.43194C91.8747 8.57061 92.0307 8.76994 92.2214 9.02994C92.4294 9.28994 92.6287 9.55861 92.8194 9.83594C93.0101 10.0959 93.1487 10.3039 93.2354 10.4599L93.3654 10.4339C93.3654 10.0526 93.3654 9.68861 93.3654 9.34194C93.3654 8.97794 93.3654 8.67461 93.3654 8.43194V0.137939H97.6814V17.9999H93.5734L86.6834 9.26394C86.4581 8.98661 86.2414 8.70061 86.0334 8.40594C85.8427 8.11127 85.6867 7.86861 85.5654 7.67794L85.4354 7.70394C85.4354 7.98127 85.4354 8.26727 85.4354 8.56194C85.4354 8.83927 85.4354 9.07327 85.4354 9.26394V17.9999H81.1194Z" fill="#FCEFED"/>
<path d="M121.864 17.9999V0.137939H125.998L132.498 8.43194C132.62 8.57061 132.776 8.76994 132.966 9.02994C133.174 9.28994 133.374 9.55861 133.564 9.83594C133.755 10.0959 133.894 10.3039 133.98 10.4599L134.11 10.4339C134.11 10.0526 134.11 9.68861 134.11 9.34194C134.11 8.97794 134.11 8.67461 134.11 8.43194V0.137939H138.426V17.9999H134.318L127.428 9.26394C127.203 8.98661 126.986 8.70061 126.778 8.40594C126.588 8.11127 126.432 7.86861 126.31 7.67794L126.18 7.70394C126.18 7.98127 126.18 8.26727 126.18 8.56194C126.18 8.83927 126.18 9.07327 126.18 9.26394V17.9999H121.864Z" fill="#FCEFED"/>
<path d="M162.661 17.9999V0.137939H177.403V3.77794H167.315V7.13194H176.129V10.6939H167.315V14.3599H177.585V17.9999H162.661Z" fill="#FCEFED"/>
<path d="M201.069 17.9999V0.137939H211.443C212.76 0.137939 213.861 0.389273 214.745 0.891939C215.629 1.37727 216.287 2.05327 216.721 2.91994C217.171 3.76927 217.397 4.72261 217.397 5.77994C217.397 6.92394 217.128 7.94661 216.591 8.84794C216.071 9.73194 215.334 10.4253 214.381 10.9279L217.969 17.9999H212.769L209.805 11.7079H205.723V17.9999H201.069ZM205.723 8.24994H210.533C211.174 8.24994 211.685 8.04194 212.067 7.62594C212.465 7.19261 212.665 6.62061 212.665 5.90994C212.665 5.44194 212.578 5.04327 212.405 4.71394C212.231 4.38461 211.989 4.13327 211.677 3.95994C211.365 3.76927 210.983 3.67394 210.533 3.67394H205.723V8.24994Z" fill="#FCEFED"/>
<path d="M163 36.831V27.169H167.597C168.251 27.169 168.793 27.2958 169.224 27.5493C169.654 27.8028 169.976 28.1549 170.191 28.6056C170.415 29.0469 170.528 29.5728 170.528 30.1831C170.528 30.7934 170.411 31.3333 170.178 31.8028C169.945 32.2629 169.604 32.6197 169.156 32.8732C168.717 33.1268 168.18 33.2535 167.543 33.2535H164.506V36.831H163ZM164.506 31.9014H167.476C167.951 31.9014 168.323 31.7512 168.592 31.4507C168.87 31.1502 169.009 30.7324 169.009 30.1972C169.009 29.8404 168.95 29.5399 168.834 29.2958C168.717 29.0423 168.547 28.8498 168.323 28.7183C168.099 28.5869 167.817 28.5211 167.476 28.5211H164.506V31.9014Z" fill="url(#paint0_linear)" fill-opacity="0.79"/>
<path d="M176.536 36.831V27.169H178.041V36.831H176.536Z" fill="url(#paint1_linear)" fill-opacity="0.79"/>
<path d="M184.795 36.831V27.169H186.3V35.4648H190.898V36.831H184.795Z" fill="url(#paint2_linear)" fill-opacity="0.79"/>
<path d="M200.555 37C199.606 37 198.781 36.8169 198.082 36.4507C197.392 36.0845 196.859 35.5305 196.483 34.7887C196.115 34.0469 195.931 33.1174 195.931 32C195.931 30.8732 196.115 29.9437 196.483 29.2113C196.859 28.4695 197.392 27.9155 198.082 27.5493C198.781 27.1831 199.606 27 200.555 27C201.523 27 202.352 27.1831 203.042 27.5493C203.732 27.9155 204.261 28.4695 204.628 29.2113C205.005 29.9437 205.193 30.8732 205.193 32C205.193 33.1174 205.005 34.0469 204.628 34.7887C204.261 35.5305 203.732 36.0845 203.042 36.4507C202.352 36.8169 201.523 37 200.555 37ZM200.555 35.662C201.048 35.662 201.483 35.5915 201.859 35.4507C202.245 35.3099 202.567 35.0939 202.827 34.8028C203.096 34.5117 203.298 34.1455 203.432 33.7042C203.575 33.2629 203.647 32.7512 203.647 32.169V31.8592C203.647 31.2582 203.575 30.7371 203.432 30.2958C203.298 29.8545 203.096 29.4883 202.827 29.1972C202.567 28.9061 202.245 28.6901 201.859 28.5493C201.483 28.4085 201.048 28.338 200.555 28.338C200.072 28.338 199.637 28.4085 199.252 28.5493C198.875 28.6901 198.553 28.9061 198.284 29.1972C198.024 29.4883 197.827 29.8545 197.692 30.2958C197.558 30.7371 197.491 31.2582 197.491 31.8592V32.169C197.491 32.7512 197.558 33.2629 197.692 33.7042C197.827 34.1455 198.024 34.5117 198.284 34.8028C198.553 35.0939 198.875 35.3099 199.252 35.4507C199.637 35.5915 200.072 35.662 200.555 35.662Z" fill="url(#paint3_linear)" fill-opacity="0.79"/>
<path d="M213.416 36.831V28.5211H210.365V27.169H218V28.5211H214.922V36.831H213.416Z" fill="url(#paint4_linear)" fill-opacity="0.79"/>
<defs>
<linearGradient id="paint0_linear" x1="177.5" y1="-3.5" x2="225.344" y2="94.4937" gradientUnits="userSpaceOnUse">
<stop stop-color="#FCEFED"/>
<stop offset="1" stop-color="#F35E3E"/>
</linearGradient>
<linearGradient id="paint1_linear" x1="177.5" y1="-3.5" x2="225.344" y2="94.4937" gradientUnits="userSpaceOnUse">
<stop stop-color="#FCEFED"/>
<stop offset="1" stop-color="#F35E3E"/>
</linearGradient>
<linearGradient id="paint2_linear" x1="177.5" y1="-3.5" x2="225.344" y2="94.4937" gradientUnits="userSpaceOnUse">
<stop stop-color="#FCEFED"/>
<stop offset="1" stop-color="#F35E3E"/>
</linearGradient>
<linearGradient id="paint3_linear" x1="177.5" y1="-3.5" x2="225.344" y2="94.4937" gradientUnits="userSpaceOnUse">
<stop stop-color="#FCEFED"/>
<stop offset="1" stop-color="#F35E3E"/>
</linearGradient>
<linearGradient id="paint4_linear" x1="177.5" y1="-3.5" x2="225.344" y2="94.4937" gradientUnits="userSpaceOnUse">
<stop stop-color="#FCEFED"/>
<stop offset="1" stop-color="#F35E3E"/>
</linearGradient>
</defs>
</svg>
