<svg width="100%" height="100%" viewBox="0 0 378 64" fill="none">
<path d="M0.642395 31.631V0.577393H18.6779C20.9681 0.577393 22.8817 1.01434 24.4185 1.88825C25.9554 2.73201 27.1006 3.90726 27.8539 5.41399C28.6374 6.89058 29.0291 8.54799 29.0291 10.3862C29.0291 12.3751 28.562 14.153 27.6279 15.72C26.7238 17.2569 25.4431 18.4623 23.7857 19.3361L30.0236 31.631H20.9832L15.8302 20.6921H8.73352V31.631H0.642395ZM8.73352 14.6804H17.0958C18.2108 14.6804 19.0998 14.3187 19.7627 13.5955C20.4559 12.8422 20.8024 11.8477 20.8024 10.6122C20.8024 9.79857 20.6517 9.10547 20.3504 8.53292C20.0491 7.96037 19.6271 7.5234 19.0847 7.22206C18.5423 6.89058 17.8794 6.72484 17.0958 6.72484H8.73352V14.6804Z" fill="#FCEFED"/>
<path d="M83.6502 32.1734C80.6669 32.1734 78.0904 31.7064 75.9207 30.7721C73.7811 29.838 72.1388 28.4368 70.9937 26.5684C69.8485 24.7001 69.276 22.3797 69.276 19.6073V0.577393H77.4123V19.4265C77.4123 21.4154 77.9396 22.9825 78.9944 24.1275C80.0492 25.2726 81.601 25.8451 83.6502 25.8451C85.6994 25.8451 87.2663 25.2726 88.3512 24.1275C89.436 22.9825 89.9784 21.4154 89.9784 19.4265V0.577393H98.0696V19.6073C98.0696 22.3797 97.4971 24.7001 96.3519 26.5684C95.2067 28.4368 93.5645 29.838 91.4249 30.7721C89.2853 31.7064 86.6938 32.1734 83.6502 32.1734Z" fill="#FCEFED"/>
<path d="M140.038 31.631V0.577393H147.225L158.525 14.9968C158.736 15.2379 159.007 15.5844 159.339 16.0364C159.701 16.4884 160.047 16.9555 160.379 17.4377C160.71 17.8896 160.951 18.2512 161.102 18.5224L161.328 18.4772C161.328 17.8143 161.328 17.1815 161.328 16.5788C161.328 15.946 161.328 15.4187 161.328 14.9968V0.577393H168.831V31.631H161.689L149.711 16.4432C149.319 15.9611 148.942 15.4639 148.581 14.9516C148.249 14.4393 147.978 14.0174 147.767 13.6859L147.541 13.7311C147.541 14.2133 147.541 14.7105 147.541 15.2228C147.541 15.7049 147.541 16.1117 147.541 16.4432V31.631H140.038Z" fill="#FCEFED"/>
<path d="M210.869 31.631V0.577393H218.056L229.357 14.9968C229.569 15.2379 229.84 15.5844 230.17 16.0364C230.532 16.4884 230.879 16.9555 231.21 17.4377C231.542 17.8896 231.784 18.2512 231.933 18.5224L232.159 18.4772C232.159 17.8143 232.159 17.1815 232.159 16.5788C232.159 15.946 232.159 15.4187 232.159 14.9968V0.577393H239.663V31.631H232.521L220.542 16.4432C220.151 15.9611 219.774 15.4639 219.412 14.9516C219.082 14.4393 218.811 14.0174 218.598 13.6859L218.372 13.7311C218.372 14.2133 218.372 14.7105 218.372 15.2228C218.372 15.7049 218.372 16.1117 218.372 16.4432V31.631H210.869Z" fill="#FCEFED"/>
<path d="M281.793 31.631V0.577393H307.422V6.90565H289.884V12.7367H305.207V18.9293H289.884V25.3027H307.739V31.631H281.793Z" fill="#FCEFED"/>
<path d="M348.576 31.631V0.577393H366.611C368.901 0.577393 370.815 1.01434 372.352 1.88825C373.889 2.73201 375.033 3.90726 375.787 5.41399C376.57 6.89058 376.962 8.54799 376.962 10.3862C376.962 12.3751 376.495 14.153 375.561 15.72C374.657 17.2569 373.376 18.4623 371.719 19.3361L377.957 31.631H368.917L363.763 20.6921H356.667V31.631H348.576ZM356.667 14.6804H365.029C366.144 14.6804 367.032 14.3187 367.696 13.5955C368.388 12.8422 368.736 11.8477 368.736 10.6122C368.736 9.79857 368.584 9.10547 368.284 8.53292C367.981 7.96037 367.56 7.5234 367.018 7.22206C366.476 6.89058 365.812 6.72484 365.029 6.72484H356.667V14.6804Z" fill="#FCEFED"/>
<path d="M281.913 63.9999V45.7065H291.909C292.889 45.7065 293.762 45.8932 294.528 46.2666C295.312 46.6399 295.927 47.1643 296.373 47.8399C296.818 48.5154 297.041 49.3065 297.041 50.2132C297.041 50.9065 296.907 51.5377 296.64 52.1066C296.373 52.6754 296.007 53.1554 295.544 53.5465C295.099 53.9199 294.591 54.2043 294.021 54.3999V54.5066C294.698 54.6488 295.304 54.9243 295.838 55.3332C296.373 55.7243 296.791 56.231 297.094 56.8532C297.397 57.4577 297.549 58.1599 297.549 58.9599C297.549 60.0977 297.29 61.0399 296.774 61.7865C296.275 62.5332 295.598 63.0932 294.742 63.4665C293.905 63.8221 292.961 63.9999 291.909 63.9999H281.913ZM285.388 61.0399H291.455C292.185 61.0399 292.782 60.8443 293.246 60.4532C293.727 60.0443 293.967 59.4132 293.967 58.5599C293.967 58.0621 293.869 57.6266 293.673 57.2532C293.477 56.8799 293.174 56.5954 292.765 56.3999C292.373 56.1865 291.865 56.0799 291.241 56.0799H285.388V61.0399ZM285.388 53.1732H291C291.535 53.1732 291.981 53.0754 292.337 52.8799C292.711 52.6843 292.987 52.4176 293.165 52.0799C293.361 51.7421 293.459 51.3688 293.459 50.9599C293.459 50.1776 293.246 49.5999 292.818 49.2265C292.408 48.8532 291.865 48.6666 291.188 48.6666H285.388V53.1732ZM310.139 63.9999V45.7065H324.439V48.6666H313.614V53.1732H323.263V56.1332H313.614V61.0399H324.599V63.9999H310.139ZM341.94 63.9999V48.6932H336.087V45.7065H351.295V48.6932H345.415V63.9999H341.94ZM359.184 63.9999L366.32 45.7065H370.703L377.866 63.9999H374.098L372.628 60.1065H364.235L362.765 63.9999H359.184ZM365.331 57.1732H371.505L369.661 52.2132C369.59 52.0354 369.501 51.8132 369.394 51.5465C369.305 51.2621 369.207 50.9599 369.1 50.6399C368.993 50.3021 368.886 49.9643 368.779 49.6265C368.672 49.2888 368.574 48.9866 368.485 48.7199H368.351C368.245 49.0754 368.111 49.4843 367.951 49.9466C367.808 50.4088 367.665 50.8443 367.523 51.2532C367.38 51.6621 367.265 51.9821 367.175 52.2132L365.331 57.1732Z" fill="url(#paint0_linear)" fill-opacity="0.79"/>
<defs>
<linearGradient id="paint0_linear" x1="466.733" y1="-12.36" x2="483.308" y2="216.199" gradientUnits="userSpaceOnUse">
<stop stop-color="#FCEFED"/>
<stop offset="1" stop-color="#F35E3E"/>
</linearGradient>
</defs>
</svg>
