<svg width="100%" height="100%" viewBox="0 0 47 47">
<path d="M29.8839 32.6316C28.2438 32.6316 26.6592 31.9205 25.4216 30.6301C24.1974 29.3327 23.4654 27.6643 23.3478 25.9033C23.2093 23.9967 23.8078 22.2421 25.0332 20.9646C26.2586 19.6871 27.9714 19 29.8839 19C31.7824 19 33.5008 19.7018 34.7224 20.9766C35.944 22.2513 36.5577 24.0161 36.4191 25.9051C36.2993 27.6651 35.5676 29.3322 34.3453 30.6301C33.1067 31.9205 31.5232 32.6316 29.8839 32.6316ZM14.8162 32.9411C12.011 32.9411 9.54413 30.4072 9.3179 27.2922C9.20196 25.697 9.70908 24.2224 10.7478 23.1401C11.7866 22.0579 13.2194 21.4822 14.8152 21.4822C16.4111 21.4822 17.8429 22.0754 18.8751 23.153C19.9073 24.2307 20.4304 25.7154 20.3126 27.2978C20.0826 30.4082 17.6167 32.9411 14.8162 32.9411ZM38.9991 38.46C38.8492 38.0271 38.4844 37.5657 37.7529 37.1282C35.5415 35.8083 32.8211 35.1101 29.8839 35.1101C27.0024 35.1101 24.2065 35.8378 22.0102 37.1595C19.5359 38.6488 17.8731 40.8207 17.2029 43.4392C17.0445 44.0554 16.8136 45.2021 17.0606 45.8441C21.0238 47.3167 25.3901 47.3843 29.3991 46.035C33.408 44.6857 36.8056 42.0051 39 38.46H38.9991ZM14.7983 42.7051C15.4647 40.1069 16.8834 37.9405 19.0844 36.1887C19.1884 36.1048 19.2675 35.9952 19.3135 35.8713C19.3594 35.7473 19.3705 35.6136 19.3456 35.4841C19.3206 35.3546 19.2606 35.2339 19.1717 35.1348C19.0828 35.0357 18.9684 34.9616 18.8402 34.9204C17.7091 34.5676 16.4177 34.3788 14.8162 34.3788C12.5709 34.3788 10.187 34.9729 8.39319 36.0524C7.88418 36.3591 7.38459 36.477 7 36.582C9.3179 39.3636 11.5713 40.8468 14.7983 42.7051C14.6371 43.3087 14.8352 42.0824 14.7983 42.7051Z" fill="#3B2E40"/>
<path fill-rule="evenodd" clip-rule="evenodd" d="M10.4441 3.96046C14.3087 1.37825 18.8521 0 23.5 0C29.7326 0 35.7099 2.47588 40.117 6.88299C44.5241 11.2901 47 17.2674 47 23.5C47 28.1478 45.6218 32.6913 43.0395 36.5559C40.4573 40.4204 36.7871 43.4325 32.4931 45.2112C28.199 46.9898 23.4739 47.4552 18.9154 46.5484C14.3568 45.6417 10.1695 43.4035 6.883 40.117C3.59647 36.8305 1.35831 32.6432 0.451556 28.0846C-0.455196 23.5261 0.0101823 18.801 1.78884 14.5069C3.5675 10.2129 6.57955 6.54268 10.4441 3.96046ZM23.5 2.69598C19.3854 2.69598 15.3631 3.91611 11.9419 6.20209C8.52071 8.48806 5.85421 11.7372 4.27961 15.5386C2.705 19.3401 2.29301 23.5231 3.09574 27.5587C3.89847 31.5942 5.87986 35.3012 8.78935 38.2106C11.6988 41.1201 15.4058 43.1015 19.4413 43.9043C23.4769 44.707 27.6599 44.295 31.4614 42.7204C35.2628 41.1458 38.5119 38.4793 40.7979 35.0581C43.0839 31.6369 44.304 27.6146 44.304 23.5C44.304 17.9824 42.1122 12.6908 38.2107 8.78933C34.3092 4.88782 29.0176 2.69598 23.5 2.69598Z" fill="url(#paint0_linear)"/>
<path fill-rule="evenodd" clip-rule="evenodd" d="M23.5 9C23.8379 9 24.1117 9.27389 24.1117 9.61174V11.8883H26.3883C26.7261 11.8883 27 12.1621 27 12.5C27 12.8379 26.7261 13.1117 26.3883 13.1117H24.1117V15.3883C24.1117 15.7261 23.8379 16 23.5 16C23.1621 16 22.8883 15.7261 22.8883 15.3883V13.1117H20.6117C20.2739 13.1117 20 12.8379 20 12.5C20 12.1621 20.2739 11.8883 20.6117 11.8883H22.8883V9.61174C22.8883 9.27389 23.1621 9 23.5 9Z" fill="url(#paint1_linear)"/>
<defs>
<linearGradient id="paint0_linear" x1="-9.5" y1="-11" x2="23.5" y2="47" gradientUnits="userSpaceOnUse">
<stop stop-color="#F35E3E"/>
<stop offset="1" stop-color="#6173F4"/>
</linearGradient>
<linearGradient id="paint1_linear" x1="-8.94135" y1="-10.7893" x2="24.0587" y2="47.2107" gradientUnits="userSpaceOnUse">
<stop stop-color="#F35E3E"/>
<stop offset="1" stop-color="#6173F4"/>
</linearGradient>
</defs>
</svg>
