<svg width="100%" height="100%" viewBox="0 0 106 106">
  <path d="M25.1103 35.3246L19.9404 33.3146L20.6659 32.3142L23.7146 33.559C23.7617 33.5738 23.8279 33.6025 23.9131 33.6449C23.994 33.6843 24.0792 33.7267 24.1686 33.7722C24.2579 33.8177 24.3373 33.8592 24.4068 33.8967L24.4297 33.865C24.3894 33.8229 24.3413 33.7783 24.2852 33.7312C24.2323 33.68 24.1814 33.6302 24.1326 33.582C24.0827 33.5264 24.0355 33.4761 23.991 33.4309C23.9495 33.3815 23.9155 33.344 23.889 33.3184L21.7265 30.8516L22.5438 29.7246L25.5695 31.0011C25.6209 31.019 25.6871 31.0477 25.768 31.087C25.8489 31.1264 25.9341 31.1688 26.0235 31.2143C26.1129 31.2598 26.1923 31.3013 26.2617 31.3388L26.2847 31.3071C26.2444 31.265 26.1998 31.2198 26.1511 31.1716C26.1054 31.1192 26.0582 31.0688 26.0094 31.0206C25.9595 30.9651 25.9138 30.9126 25.8723 30.8632C25.8309 30.8138 25.7942 30.7711 25.7623 30.7351L23.6273 28.2304L24.2839 27.325L27.7962 31.6207L27.0157 32.6971L23.8801 31.399C23.8118 31.3688 23.7336 31.3346 23.6453 31.2964C23.556 31.2509 23.4687 31.2069 23.3835 31.1645C23.2984 31.122 23.2232 31.0836 23.158 31.0492L23.1396 31.0745C23.1926 31.1258 23.2546 31.1869 23.3256 31.2577C23.3997 31.3243 23.4686 31.3936 23.5323 31.4656C23.5991 31.5333 23.6553 31.5934 23.701 31.6459L25.9137 34.2166L25.1103 35.3246Z" fill="#6173F4"/>
  <path d="M31.4404 27.8315L28.2539 23.515L29.1914 22.8229L30.4549 24.5344L32.3677 23.1223L31.1043 21.4108L32.0418 20.7187L35.2283 25.0352L34.2908 25.7273L32.953 23.9151L31.0402 25.3272L32.3779 27.1394L31.4404 27.8315Z" fill="#6173F4"/>
  <path d="M40.8313 22.1982L40.0763 20.1759L37.0059 17.8994L38.2734 17.4262L40.274 18.9835L40.3106 18.9698L40.794 16.4853L41.9883 16.0394L41.1754 19.7656L41.9303 21.7879L40.8313 22.1982Z" fill="#6173F4"/>
  <path d="M52.7975 19.7779L53.1484 14.4242L56.0828 14.6165C56.4783 14.6425 56.8014 14.7342 57.0524 14.8917C57.3085 15.0496 57.4933 15.2603 57.6066 15.5237C57.7203 15.782 57.7664 16.075 57.7449 16.4028C57.7221 16.7514 57.6237 17.0558 57.4499 17.3161C57.2765 17.5713 57.0368 17.7593 56.7311 17.8804L57.683 20.0982L56.3953 20.0137L55.5788 18.0008L54.0882 17.9031L53.9603 19.8541L52.7975 19.7779ZM54.1486 16.9822L55.7641 17.0881C55.9982 17.1034 56.1849 17.0451 56.3242 16.9132C56.4638 16.776 56.5416 16.5852 56.5577 16.3406C56.5679 16.1845 56.548 16.05 56.4979 15.937C56.4482 15.8188 56.3706 15.7275 56.2651 15.6631C56.1595 15.5987 56.0261 15.5612 55.8649 15.5506L54.2494 15.4447L54.1486 16.9822Z" fill="#6173F4"/>
  <path d="M63.6752 21.7558C63.2123 21.5949 62.839 21.3823 62.5555 21.1182C62.2769 20.8558 62.1002 20.546 62.0256 20.1889C61.9527 19.8268 61.9933 19.4242 62.1474 18.9809L63.2437 15.8264L64.3518 16.2115L63.2658 19.3365C63.1391 19.7009 63.1376 20.015 63.2612 20.2788C63.3865 20.5376 63.6289 20.7295 63.9885 20.8545C64.348 20.9794 64.6572 20.9792 64.916 20.8539C65.1815 20.7254 65.3775 20.4789 65.5042 20.1144L66.5902 16.9895L67.6984 17.3746L66.6021 20.5291C66.448 20.9723 66.2301 21.3134 65.9484 21.5522C65.6684 21.7861 65.3353 21.9187 64.9491 21.95C64.5677 21.9831 64.1431 21.9184 63.6752 21.7558Z" fill="#6173F4"/>
  <path d="M69.6179 24.2799L72.7051 19.8918L73.5814 20.5084L73.6817 24.1172C73.6863 24.165 73.6883 24.2302 73.6877 24.3126C73.6901 24.3908 73.6903 24.4675 73.6884 24.5426C73.6865 24.6178 73.6815 24.6748 73.6733 24.7137L73.7053 24.7362C73.7563 24.6637 73.8058 24.5933 73.8538 24.5251C73.9048 24.4526 73.9498 24.3886 73.9888 24.3332L75.6539 21.9665L76.5558 22.601L73.4686 26.989L72.5923 26.3725L72.4941 22.6791C72.4934 22.5894 72.4951 22.4918 72.4992 22.3863C72.5033 22.2808 72.5082 22.2014 72.5139 22.148L72.4819 22.1255C72.4369 22.1895 72.3919 22.2535 72.3469 22.3174C72.3049 22.3771 72.2644 22.4347 72.2254 22.4901L70.5198 24.9144L69.6179 24.2799Z" fill="#6173F4"/>
  <path d="M76.9652 30.1717L81.1724 26.8423L81.8373 27.6825L80.9076 31.1709C80.8984 31.2181 80.8818 31.2811 80.8578 31.36C80.8378 31.4356 80.8163 31.5092 80.7931 31.5807C80.7699 31.6523 80.7489 31.7055 80.73 31.7404L80.7542 31.7711C80.8237 31.7161 80.8912 31.6627 80.9566 31.6109C81.0261 31.5559 81.0874 31.5074 81.1406 31.4653L83.4098 29.6696L84.0941 30.5343L79.8869 33.8637L79.222 33.0235L80.1777 29.4546C80.2026 29.3684 80.232 29.2753 80.2659 29.1754C80.2998 29.0754 80.3271 29.0006 80.3477 28.951L80.3235 28.9204C80.2621 28.9689 80.2008 29.0174 80.1395 29.066C80.0822 29.1113 80.027 29.155 79.9739 29.197L77.6495 31.0365L76.9652 30.1717Z" fill="#6173F4"/>
  <path d="M82.3172 37.9288L87.2778 35.8849L88.9106 39.8476L88.0284 40.2111L86.8425 37.3331L85.7362 37.7889L86.7849 40.3343L85.9099 40.6948L84.8612 38.1494L83.6535 38.647L84.8572 41.5684L83.9678 41.9349L82.3172 37.9288Z" fill="#6173F4"/>
  <path d="M85.1462 46.2483L90.4717 45.5964L90.829 48.5153C90.8771 48.9087 90.8472 49.2433 90.7391 49.5192C90.6317 49.8002 90.4591 50.0209 90.2214 50.1814C89.9888 50.3412 89.7095 50.441 89.3834 50.4809C89.0367 50.5234 88.7192 50.4834 88.4311 50.3611C88.1482 50.2382 87.9188 50.0377 87.7429 49.7599L85.7411 51.108L85.5843 49.8271L87.4101 48.6502L87.2286 47.1675L85.2878 47.405L85.1462 46.2483ZM88.1446 47.0553L88.3413 48.6623C88.3698 48.8952 88.4619 49.0678 88.6175 49.18C88.7782 49.2917 88.9802 49.3326 89.2234 49.3028C89.3787 49.2838 89.5072 49.2392 89.6089 49.169C89.7158 49.0981 89.7911 49.0049 89.8347 48.8892C89.8783 48.7736 89.8903 48.6355 89.8707 48.4751L89.6739 46.8681L88.1446 47.0553Z" fill="#6173F4"/>
  <path d="M86.0332 61.6858L86.3853 61.7914C86.5651 61.8453 86.7092 61.9184 86.8176 62.0108C86.9295 62.1097 87.0202 62.2158 87.0896 62.3292C87.1625 62.449 87.2215 62.5701 87.2664 62.6925C87.3164 62.8163 87.3661 62.9319 87.4155 63.0393C87.4685 63.1531 87.5342 63.2518 87.6126 63.3352C87.6895 63.4235 87.7879 63.4857 87.9078 63.5217C87.9627 63.5381 88.0274 63.5494 88.1018 63.5553C88.1762 63.5613 88.2534 63.5491 88.3333 63.5186C88.4167 63.4946 88.4926 63.4412 88.561 63.3583C88.6344 63.2768 88.6943 63.1587 88.7407 63.0039C88.7916 62.8341 88.8079 62.6893 88.7894 62.5694C88.7694 62.4546 88.7277 62.3577 88.6642 62.2788C88.6043 62.2064 88.5349 62.1474 88.4559 62.102C88.3755 62.0616 88.2979 62.0301 88.223 62.0076C88.188 61.9972 88.153 61.9867 88.1181 61.9762C88.0881 61.9672 88.0549 61.96 88.0184 61.9545L88.3262 60.9282C88.3577 60.9321 88.3974 60.9359 88.4453 60.9394C88.4918 60.9479 88.5449 60.9611 88.6049 60.9791C88.7797 61.0315 88.937 61.1059 89.0768 61.2022C89.2152 61.3036 89.3318 61.4229 89.4267 61.5603C89.5251 61.7041 89.5961 61.8669 89.6395 62.0487C89.688 62.2319 89.7073 62.431 89.6973 62.6457C89.6873 62.8605 89.6457 63.0902 89.5723 63.3349C89.5094 63.5447 89.431 63.7335 89.3371 63.9013C89.2468 64.0756 89.1407 64.2207 89.0188 64.3366C88.9005 64.4589 88.7714 64.5536 88.6316 64.6205C88.4917 64.6875 88.3412 64.7267 88.1798 64.7382C88.0185 64.7497 87.8505 64.7292 87.6757 64.6768C87.4559 64.6109 87.2784 64.5223 87.143 64.4109C87.0127 64.3011 86.9058 64.1765 86.8224 64.0372C86.7424 63.9043 86.6772 63.7678 86.6268 63.6274C86.5763 63.4871 86.5244 63.3518 86.4709 63.2214C86.421 63.0976 86.3583 62.989 86.2829 62.8956C86.2074 62.8022 86.1023 62.7353 85.9675 62.6949L85.7502 62.6297L86.0332 61.6858ZM84.523 61.1676L85.5718 61.4821L85.2528 62.5459L84.204 62.2314L84.523 61.1676Z" fill="#6173F4"/>
  <path d="M80.6549 70.5678L85.8247 72.5779L85.0993 73.5782L82.0506 72.3335C82.0034 72.3186 81.9372 72.29 81.8521 72.2475C81.7711 72.2081 81.686 72.1657 81.5966 72.1202C81.5072 72.0747 81.4278 72.0332 81.3584 71.9958L81.3354 72.0274C81.3757 72.0695 81.4239 72.1141 81.4799 72.1612C81.5329 72.2125 81.5837 72.2623 81.6325 72.3105C81.6824 72.366 81.7296 72.4164 81.7742 72.4615C81.8156 72.5109 81.8496 72.5484 81.8761 72.5741L84.0386 75.0408L83.2214 76.1678L80.1956 74.8914C80.1442 74.8735 80.0781 74.8448 79.9971 74.8054C79.9162 74.7661 79.831 74.7236 79.7417 74.6781C79.6523 74.6326 79.5729 74.5911 79.5034 74.5537L79.4805 74.5853C79.5208 74.6274 79.5653 74.6726 79.6141 74.7208C79.6597 74.7733 79.707 74.8236 79.7557 74.8719C79.8056 74.9274 79.8513 74.9799 79.8928 75.0292C79.9343 75.0786 79.9709 75.1213 80.0028 75.1573L82.1378 77.662L81.4812 78.5674L77.9689 74.2717L78.7494 73.1954L81.885 74.4935C81.9533 74.5237 82.0316 74.5579 82.1198 74.5961C82.2092 74.6416 82.2964 74.6855 82.3816 74.728C82.4668 74.7704 82.542 74.8088 82.6072 74.8432L82.6255 74.8179C82.5726 74.7666 82.5106 74.7056 82.4396 74.6347C82.3655 74.5681 82.2966 74.4989 82.2328 74.4269C82.166 74.3591 82.1098 74.299 82.0641 74.2466L79.8514 71.6758L80.6549 70.5678Z" fill="#FCEFED"/>
  <path d="M74.3242 78.0612L77.5107 82.3777L76.5732 83.0698L75.3098 81.3583L73.3969 82.7704L74.6604 84.4819L73.7228 85.174L70.5363 80.8575L71.4739 80.1654L72.8116 81.9776L74.7245 80.5655L73.3867 78.7533L74.3242 78.0612Z" fill="#FCEFED"/>
  <path d="M64.9339 83.6942L65.6888 85.7165L68.7593 87.993L67.4917 88.4662L65.4911 86.909L65.4545 86.9226L64.9712 89.4072L63.7769 89.853L64.5897 86.1268L63.8348 84.1045L64.9339 83.6942Z" fill="#FCEFED"/>
  <path d="M52.9676 86.1145L52.6167 91.4683L49.6823 91.2759C49.2869 91.25 48.9637 91.1583 48.7128 91.0007C48.4566 90.8429 48.2719 90.6322 48.1585 90.3687C48.0448 90.1105 47.9987 89.8175 48.0202 89.4897C48.0431 89.1411 48.1414 88.8366 48.3152 88.5763C48.4887 88.3212 48.7283 88.1331 49.0341 88.0121L48.0822 85.7943L49.3699 85.8787L50.1863 87.8917L51.6769 87.9894L51.8048 86.0383L52.9676 86.1145ZM51.6165 88.9103L50.0011 88.8044C49.7669 88.789 49.5802 88.8473 49.4409 88.9793C49.3013 89.1164 49.2235 89.3073 49.2075 89.5518C49.1972 89.7079 49.2172 89.8425 49.2672 89.9555C49.317 90.0737 49.3946 90.165 49.5001 90.2294C49.6056 90.2938 49.739 90.3313 49.9003 90.3418L51.5158 90.4477L51.6165 88.9103Z" fill="#FCEFED"/>
  <path d="M42.0894 84.1368C42.5524 84.2977 42.9256 84.5102 43.2092 84.7744C43.4878 85.0368 43.6644 85.3466 43.739 85.7037C43.8119 86.0658 43.7713 86.4684 43.6173 86.9117L42.521 90.0662L41.4129 89.681L42.4989 86.5561C42.6255 86.1916 42.6271 85.8775 42.5035 85.6138C42.3781 85.355 42.1357 85.1631 41.7762 85.0381C41.4166 84.9132 41.1075 84.9134 40.8486 85.0387C40.5832 85.1672 40.3871 85.4137 40.2604 85.7782L39.1744 88.9031L38.0663 88.518L39.1626 85.3635C39.3166 84.9202 39.5345 84.5792 39.8162 84.3404C40.0962 84.1065 40.4293 83.9739 40.8156 83.9425C41.1969 83.9095 41.6215 83.9742 42.0894 84.1368Z" fill="#FCEFED"/>
  <path d="M36.1477 81.6126L33.0605 86.0006L32.1842 85.3841L32.0839 81.7753C32.0793 81.7274 32.0773 81.6623 32.0779 81.5798C32.0756 81.5017 32.0753 81.425 32.0772 81.3498C32.0791 81.2746 32.0841 81.2176 32.0923 81.1788L32.0604 81.1563C32.0094 81.2288 31.9599 81.2991 31.9119 81.3674C31.8609 81.4399 31.8159 81.5038 31.7768 81.5593L30.1117 83.926L29.2098 83.2914L32.297 78.9034L33.1734 79.52L33.2716 83.2133C33.2722 83.303 33.2705 83.4006 33.2664 83.5061C33.2623 83.6116 33.2574 83.6911 33.2517 83.7444L33.2837 83.7669C33.3287 83.703 33.3737 83.639 33.4187 83.575C33.4607 83.5153 33.5012 83.4578 33.5402 83.4023L35.2458 80.978L36.1477 81.6126Z" fill="#FCEFED"/>
  <path d="M28.7995 75.7211L24.5923 79.0505L23.9274 78.2103L24.857 74.7219C24.8662 74.6747 24.8828 74.6117 24.9069 74.5328C24.9268 74.4572 24.9484 74.3836 24.9716 74.3121C24.9947 74.2405 25.0158 74.1873 25.0347 74.1524L25.0104 74.1217C24.9409 74.1767 24.8735 74.2301 24.808 74.2819C24.7385 74.3369 24.6772 74.3854 24.624 74.4275L22.3549 76.2233L21.6705 75.3585L25.8777 72.0291L26.5426 72.8693L25.5869 76.4382C25.562 76.5244 25.5326 76.6175 25.4987 76.7175C25.4648 76.8174 25.4375 76.8922 25.4169 76.9418L25.4412 76.9724C25.5025 76.9239 25.5638 76.8754 25.6252 76.8268C25.6824 76.7815 25.7376 76.7379 25.7908 76.6958L28.1151 74.8564L28.7995 75.7211Z" fill="#FCEFED"/>
  <path d="M23.4479 67.9637L18.4873 70.0076L16.8546 66.0448L17.7368 65.6813L18.9226 68.5594L20.029 68.1035L18.9802 65.5581L19.8552 65.1976L20.904 67.743L22.1116 67.2455L20.9079 64.324L21.7973 63.9576L23.4479 67.9637Z" fill="#FCEFED"/>
  <path d="M20.6194 59.6442L15.2939 60.2961L14.9366 57.3772C14.8885 56.9839 14.9184 56.6493 15.0265 56.3734C15.1339 56.0924 15.3065 55.8716 15.5443 55.7112C15.7768 55.5514 16.0562 55.4516 16.3822 55.4117C16.729 55.3692 17.0464 55.4091 17.3345 55.5315C17.6175 55.6544 17.8469 55.8548 18.0227 56.1327L20.0245 54.7846L20.1813 56.0655L18.3555 57.2424L18.537 58.7251L20.4778 58.4875L20.6194 59.6442ZM17.621 58.8373L17.4243 57.2303C17.3958 56.9974 17.3037 56.8248 17.1482 56.7125C16.9874 56.6009 16.7854 56.56 16.5422 56.5897C16.3869 56.6087 16.2584 56.6534 16.1567 56.7236C16.0498 56.7945 15.9746 56.8877 15.9309 57.0034C15.8873 57.119 15.8753 57.2571 15.895 57.4175L16.0917 59.0245L17.621 58.8373Z" fill="#FCEFED"/>
  <path d="M19.7314 44.2067L19.3793 44.1011C19.1995 44.0472 19.0554 43.974 18.947 43.8816C18.8352 43.7828 18.7445 43.6767 18.6751 43.5633C18.6021 43.4434 18.5432 43.3223 18.4982 43.2C18.4483 43.0762 18.3986 42.9605 18.3491 42.8532C18.2962 42.7393 18.2305 42.6407 18.1521 42.5573C18.0751 42.4689 17.9767 42.4067 17.8569 42.3708C17.8019 42.3543 17.7373 42.3431 17.6629 42.3371C17.5884 42.3311 17.5113 42.3434 17.4314 42.3739C17.348 42.3978 17.2721 42.4513 17.2037 42.5342C17.1303 42.6156 17.0704 42.7337 17.0239 42.8885C16.973 43.0584 16.9568 43.2032 16.9753 43.323C16.9953 43.4379 17.037 43.5348 17.1004 43.6137C17.1604 43.6861 17.2298 43.745 17.3087 43.7905C17.3891 43.8309 17.4668 43.8623 17.5417 43.8848C17.5767 43.8953 17.6116 43.9058 17.6466 43.9163C17.6765 43.9252 17.7097 43.9325 17.7462 43.938L17.4384 44.9643C17.407 44.9603 17.3673 44.9566 17.3193 44.9531C17.2729 44.9446 17.2197 44.9314 17.1598 44.9134C16.985 44.861 16.8276 44.7866 16.6878 44.6902C16.5494 44.5889 16.4328 44.4695 16.3379 44.3322C16.2395 44.1884 16.1686 44.0256 16.1251 43.8438C16.0766 43.6605 16.0574 43.4615 16.0673 43.2467C16.0773 43.032 16.119 42.8023 16.1924 42.5575C16.2553 42.3478 16.3337 42.159 16.4275 41.9912C16.5179 41.8169 16.624 41.6718 16.7458 41.5559C16.8642 41.4335 16.9933 41.3389 17.1331 41.2719C17.2729 41.205 17.4235 41.1658 17.5848 41.1543C17.7461 41.1428 17.9142 41.1632 18.089 41.2156C18.3087 41.2815 18.4863 41.3702 18.6216 41.4815C18.752 41.5914 18.8589 41.716 18.9423 41.8553C19.0222 41.9881 19.0874 42.1247 19.1379 42.265C19.1883 42.4053 19.2403 42.5407 19.2937 42.671C19.3437 42.7949 19.4064 42.9035 19.4818 42.9969C19.5572 43.0902 19.6624 43.1572 19.7972 43.1976L20.0144 43.2627L19.7314 44.2067ZM21.2417 44.7249L20.1929 44.4104L20.5119 43.3466L21.5607 43.6611L21.2417 44.7249Z" fill="#FCEFED"/>
</svg>
